<svg viewBox="0 0 200 200" xmlns="http://www.w3.org/2000/svg">
    <rect width="200" height="200" fill="#000000"/>
    <defs>
        <radialGradient id="iconGrad" cx="50%" cy="50%">
            <stop offset="0%" style="stop-color:#d4af37;stop-opacity:0.2"/>
            <stop offset="100%" style="stop-color:#d4af37;stop-opacity:0"/>
        </radialGradient>
    </defs>
    
    <!-- Коло лупи -->
    <circle cx="100" cy="100" r="75" fill="url(#iconGrad)"/>
    <circle cx="100" cy="100" r="75" fill="none" stroke="#d4af37" stroke-width="7"/>
    
    <!-- Будівлі -->
    <g opacity="0.95">
        <!-- Ліва будівля -->
        <rect x="50" y="110" width="18" height="48" fill="none" stroke="#d4af37" stroke-width="2.5"/>
        <line x1="50" y1="122" x2="68" y2="122" stroke="#d4af37" stroke-width="1.5"/>
        <line x1="50" y1="137" x2="68" y2="137" stroke="#d4af37" stroke-width="1.5"/>
        <line x1="50" y1="152" x2="68" y2="152" stroke="#d4af37" stroke-width="1.5"/>
        
        <!-- Центральна будівля -->
        <polygon points="100,60 82,85 118,85" fill="none" stroke="#d4af37" stroke-width="2.5"/>
        <rect x="82" y="85" width="36" height="73" fill="none" stroke="#d4af37" stroke-width="2.5"/>
        <line x1="100" y1="85" x2="100" y2="158" stroke="#d4af37" stroke-width="1.5"/>
        <line x1="82" y1="100" x2="118" y2="100" stroke="#d4af37" stroke-width="1.5"/>
        <line x1="82" y1="118" x2="118" y2="118" stroke="#d4af37" stroke-width="1.5"/>
        <line x1="82" y1="136" x2="118" y2="136" stroke="#d4af37" stroke-width="1.5"/>
        <line x1="82" y1="154" x2="118" y2="154" stroke="#d4af37" stroke-width="1.5"/>
        
        <!-- Права будівля -->
        <rect x="132" y="115" width="18" height="43" fill="none" stroke="#d4af37" stroke-width="2.5"/>
        <line x1="132" y1="128" x2="150" y2="128" stroke="#d4af37" stroke-width="1.5"/>
        <line x1="132" y1="144" x2="150" y2="144" stroke="#d4af37" stroke-width="1.5"/>
    </g>
    
    <!-- Ручка лупи -->
    <line x1="140" y1="140" x2="175" y2="175" stroke="#d4af37" stroke-width="7" stroke-linecap="round"/>
</svg>



